<svg width="67" height="21" viewBox="0 0 67 21" fill="none" xmlns="http://www.w3.org/2000/svg">
<g clip-path="url(#clip0_2405_989)">
<path d="M61.3167 8.82745L65.6662 4.67115L65.8762 4.46989V3.21552H56.7573V4.67583H63.8368L59.254 9.05211V10.2924H61.6854C63.4494 10.2924 64.9381 10.9992 64.9381 12.9135C64.9381 14.8279 63.3981 15.9465 61.3681 15.9465C59.338 15.9465 58.2273 15.1602 57.1213 14.3738C56.6546 15.0057 56.2393 15.6469 56.2393 15.6469C57.3686 16.5409 58.6333 17.4068 61.3401 17.4068C64.2988 17.4068 66.5435 15.6282 66.5435 12.8386C66.5435 10.5546 64.7981 8.83681 62.0401 8.83681H61.3074L61.3167 8.82745Z" fill="white"/>
<path d="M31.9533 3.21552H26.1852V17.2102H27.7906V11.7481H31.9533C35.3414 11.7481 36.7741 9.8478 36.7741 7.48414C36.7741 5.12048 35.3368 3.2202 31.9533 3.2202V3.21552ZM32.3827 10.2878H27.7906V4.67115H32.3827C34.7674 4.67115 35.1408 6.60888 35.1408 7.47946C35.1408 8.35003 34.7674 10.2878 32.3827 10.2878Z" fill="white"/>
<path d="M51.9831 3.21552L46.551 14.3645L41.1188 3.21552H39.1961V17.2102H40.8015V6.18296L46.0936 17.2149H47.0083L52.3005 6.18296V17.2102H53.9058V3.21552H51.9831Z" fill="white"/>
<path fill-rule="evenodd" clip-rule="evenodd" d="M17.8551 0H2.51073C1.1247 0 0 1.128 0 2.51811V17.9076C0 19.2977 1.1247 20.4257 2.51073 20.4257H12.143C13.7764 20.4257 15.4564 18.5676 15.4564 16.452C15.4564 14.0556 13.137 12.1132 10.7476 12.1132H7.47153V10.9524L13.6737 5.04091H4.36345V3.21551H16.6978V4.46989L16.4878 4.67115L10.6683 10.2878C14.2477 10.2878 17.2811 13.2458 17.2811 16.452C17.2811 18.0293 16.7164 19.3492 15.8297 20.4257H17.8551C19.2412 20.4257 20.3659 19.2977 20.3659 17.9076V2.51811C20.3659 1.128 19.2412 0 17.8551 0Z" fill="white"/>
</g>
<defs>
<clipPath id="clip0_2405_989">
<rect width="66.5484" height="20.4257" fill="white"/>
</clipPath>
</defs>
</svg>
