<svg width="824" height="127" viewBox="0 0 824 127" fill="none" xmlns="http://www.w3.org/2000/svg">
<path d="M63.17 126.34C98.06 126.34 126.34 98.06 126.34 63.17C126.34 28.28 98.06 0 63.17 0C28.28 0 0 28.28 0 63.17C0 98.06 28.28 126.34 63.17 126.34Z" fill="#DF0C78"/>
<path d="M22.57 56.4001C21.35 55.7301 19.98 55.3901 18.42 55.3901C17.09 55.3901 15.89 55.6801 14.82 56.2701C14.18 56.6201 13.65 57.0901 13.19 57.6501V55.6001H9.64V77.3102H13.34V69.5801C13.79 70.1101 14.3 70.5401 14.89 70.8601C15.95 71.4501 17.13 71.7401 18.44 71.7401C19.99 71.7401 21.37 71.4001 22.59 70.7301C23.81 70.0601 24.77 69.1002 25.47 67.8802C26.17 66.6602 26.53 65.2202 26.53 63.5702C26.53 61.9202 26.18 60.5101 25.47 59.2801C24.77 58.0501 23.8 57.0901 22.59 56.4101L22.57 56.3901V56.4001ZM22.09 66.1801C21.67 66.9301 21.11 67.5302 20.41 67.9402C19.71 68.3602 18.89 68.5602 17.98 68.5602C17.07 68.5602 16.31 68.3502 15.59 67.9402C14.87 67.5202 14.31 66.9301 13.89 66.1801C13.47 65.4301 13.27 64.5501 13.27 63.5501C13.27 62.5501 13.48 61.6601 13.89 60.9101C14.31 60.1601 14.87 59.5801 15.59 59.1801C16.31 58.7801 17.1 58.5702 17.98 58.5702C18.86 58.5702 19.71 58.7801 20.41 59.1801C21.11 59.5801 21.68 60.1701 22.09 60.9101C22.51 61.6501 22.71 62.5401 22.71 63.5501C22.71 64.5601 22.5 65.4201 22.09 66.1801Z" fill="white"/>
<path d="M34.87 59.1801C35.61 58.7801 36.42 58.5701 37.35 58.5701C38.15 58.5701 38.89 58.7601 39.58 59.1101C40.27 59.4801 40.85 60.0401 41.33 60.7601L44.16 59.0901C43.57 57.8701 42.67 56.9601 41.47 56.3201C40.27 55.6801 38.91 55.3601 37.39 55.3601C35.72 55.3601 34.24 55.7101 32.92 56.4201C31.62 57.1201 30.6 58.0901 29.86 59.3001C29.12 60.5201 28.76 61.9301 28.76 63.5401C28.76 65.1501 29.13 66.5301 29.86 67.7701C30.6 68.9901 31.62 69.9601 32.92 70.6701C34.22 71.3701 35.71 71.7301 37.39 71.7301C38.93 71.7301 40.29 71.4101 41.47 70.7501C42.66 70.0901 43.55 69.1801 44.16 68.0001L41.33 66.3301C40.85 67.0801 40.27 67.6401 39.58 68.0101C38.89 68.3801 38.15 68.5501 37.35 68.5501C36.44 68.5501 35.6 68.3401 34.87 67.9401C34.13 67.5401 33.56 66.9501 33.14 66.1901C32.72 65.4401 32.52 64.5601 32.52 63.5301C32.52 62.5001 32.73 61.6401 33.14 60.8901C33.56 60.1401 34.13 59.5601 34.87 59.1601V59.1801Z" fill="white"/>
<path d="M59 57.5301C58.55 57.0201 58.04 56.5901 57.46 56.2501C56.42 55.6601 55.22 55.3701 53.86 55.3701C52.32 55.3701 50.96 55.7101 49.74 56.3801C48.52 57.0501 47.58 58.0101 46.87 59.2501C46.17 60.4801 45.83 61.9201 45.83 63.5401C45.83 65.1601 46.18 66.6301 46.87 67.8501C47.56 69.0701 48.52 70.0301 49.74 70.7001C50.96 71.3701 52.32 71.7101 53.86 71.7101C55.25 71.7101 56.47 71.4201 57.51 70.8301C58.15 70.4801 58.7 69.9801 59.16 69.3901V71.5001H62.71V55.5701H58.98V57.5101L59 57.5401V57.5301ZM58.44 66.2001C58.02 66.9701 57.45 67.5501 56.74 67.9601C56.02 68.3601 55.22 68.5701 54.32 68.5701C53.42 68.5701 52.65 68.3601 51.93 67.9601C51.21 67.5601 50.65 66.9701 50.23 66.2001C49.81 65.4301 49.61 64.5501 49.61 63.5601C49.61 62.5701 49.82 61.6701 50.23 60.9201C50.65 60.1701 51.22 59.5901 51.93 59.1901C52.65 58.7901 53.44 58.5801 54.32 58.5801C55.2 58.5801 56.02 58.7901 56.74 59.1901C57.46 59.5901 58.02 60.1801 58.44 60.9201C58.86 61.6601 59.06 62.5501 59.06 63.5601C59.06 64.5701 58.85 65.4301 58.44 66.2001Z" fill="white"/>
<path d="M91.11 56.1201C90.13 55.6201 89 55.3701 87.73 55.3701C86.16 55.3701 84.78 55.7401 83.58 56.4701C82.84 56.9201 82.25 57.4801 81.79 58.1001C81.41 57.4401 80.93 56.8801 80.32 56.4701C79.23 55.7301 77.93 55.3701 76.44 55.3701C75.11 55.3701 73.93 55.6401 72.9 56.2001C72.23 56.5701 71.68 57.0301 71.22 57.5901V55.5701H67.67V71.5001H71.37V63.4101C71.37 62.3501 71.55 61.4701 71.9 60.7701C72.25 60.0701 72.73 59.5401 73.36 59.1701C73.98 58.8201 74.71 58.6401 75.52 58.6401C76.67 58.6401 77.57 58.9901 78.19 59.6801C78.81 60.3801 79.13 61.4301 79.13 62.8501V71.5001H82.83V63.4101C82.83 62.3501 83.01 61.4701 83.36 60.7701C83.71 60.0701 84.19 59.5401 84.82 59.1701C85.44 58.8201 86.17 58.6401 86.98 58.6401C88.13 58.6401 89.03 58.9901 89.65 59.6801C90.27 60.3801 90.59 61.4301 90.59 62.8501V71.5001H94.29V62.3701C94.29 60.7501 94.02 59.4401 93.46 58.4001C92.9 57.3601 92.13 56.6101 91.15 56.1101H91.1L91.11 56.1201Z" fill="white"/>
<path d="M114.89 59.2599C114.19 58.0299 113.22 57.0699 112.01 56.3899C110.79 55.7199 109.42 55.3799 107.86 55.3799C106.53 55.3799 105.33 55.6699 104.26 56.2599C103.62 56.6099 103.09 57.0799 102.63 57.6399V55.5899H99.08V77.2999H102.78V69.5699C103.23 70.0999 103.74 70.5299 104.33 70.8499C105.39 71.4399 106.57 71.7299 107.88 71.7299C109.43 71.7299 110.81 71.3899 112.03 70.7199C113.25 70.0499 114.21 69.0899 114.91 67.8699C115.61 66.6499 115.97 65.2099 115.97 63.5599C115.97 61.9099 115.62 60.4999 114.91 59.2699L114.89 59.2499V59.2599ZM111.53 66.1799C111.11 66.9299 110.55 67.5299 109.85 67.9399C109.15 68.3599 108.33 68.5599 107.42 68.5599C106.51 68.5599 105.75 68.3499 105.03 67.9399C104.31 67.5199 103.75 66.9299 103.33 66.1799C102.91 65.4299 102.71 64.5499 102.71 63.5499C102.71 62.5499 102.92 61.6599 103.33 60.9099C103.75 60.1599 104.31 59.5799 105.03 59.1799C105.75 58.7799 106.54 58.5699 107.42 58.5699C108.3 58.5699 109.15 58.7799 109.85 59.1799C110.55 59.5799 111.12 60.1699 111.53 60.9099C111.95 61.6499 112.15 62.5399 112.15 63.5499C112.15 64.5599 111.94 65.4199 111.53 66.1799Z" fill="white"/>
<path d="M349.6 63.67V62.5C349.66 54.91 343.98 48.49 336.44 47.61C331.04 46.79 325.66 49.08 322.52 53.55C318.74 59.2 318.42 66.49 321.66 72.46C325.69 79.62 334.76 82.15 341.92 78.13C343.55 77.22 344.99 76 346.18 74.54C348.55 71.42 349.75 67.57 349.61 63.67H349.6ZM349.04 15.02H362.49C362.76 15.96 362.89 88.47 362.63 91.02C358.11 91.32 353.58 91.36 349.07 91.1V85.78L348.8 85.64C348.45 85.93 348.1 86.18 347.76 86.49C345.31 88.78 342.4 90.49 339.23 91.52C330.9 94.23 321.74 92.16 315.39 86.14C310.03 81.46 306.66 74.88 306.02 67.79C305.12 61.29 306.23 54.66 309.21 48.8C312.38 42.23 318.29 37.41 325.35 35.61C333.13 33.43 341.49 35.43 347.45 40.88C347.88 41.26 348.33 41.65 348.76 42.03L349.03 41.92L349.06 15.03H349.04V15.02Z" fill="white"/>
<path d="M159.68 64.07C159.71 64.57 159.78 65.51 159.87 66.47C159.93 67.03 160.03 67.57 160.14 68.12C161.33 74.3 166.32 79.02 172.55 79.89C178.81 80.95 185.04 77.78 187.87 72.09C189.36 69.14 190.02 65.86 189.78 62.56C189.78 54.25 183.05 47.49 174.73 47.49C171.03 47.49 167.46 48.85 164.7 51.3C161.23 54.6 159.38 59.27 159.69 64.06H159.67L159.68 64.07ZM160.34 85.49V111.3H146.73V36.29H160.21C160.48 38.15 160.15 40.04 160.42 42.12L161.88 40.85C165.13 37.89 169.15 35.92 173.47 35.2C181.76 33.65 190.27 36.55 195.87 42.84C199.82 47.07 202.35 52.43 203.11 58.16C203.97 63.33 203.61 68.63 202.07 73.64C200 80.32 195.47 85.97 189.42 89.46C180.68 94.57 169.66 93.56 162.01 86.93C161.55 86.51 161.07 86.11 160.31 85.5" fill="white"/>
<path d="M270.86 79.8201C276.47 79.8201 281.53 76.46 283.67 71.28C285.82 66.76 285.94 61.56 284.04 56.93C281.88 51.21 276.31 47.51 270.19 47.75C264.04 47.65 258.5 51.45 256.35 57.2C255.26 60.21 254.94 63.45 255.41 66.62C256.24 74.42 263.02 80.22 270.86 79.81V79.8201ZM270.09 92.6C254.25 92.52 241.44 79.6601 241.44 63.8201C241.25 47.8901 254.03 34.8 269.96 34.63C285.89 34.44 298.98 47.22 299.15 63.15V63.68C299.33 79.49 286.66 92.42 270.85 92.6H270.07" fill="white"/>
<path d="M374.88 36.28H388.65C388.68 36.87 388.75 37.42 388.75 37.96C388.75 45.87 388.72 53.75 388.78 61.66C388.8 64.51 388.94 67.36 389.18 70.2C389.29 71.48 389.6 72.75 390.06 73.95C391.45 77.73 395.18 80.13 399.2 79.83C401.28 79.86 403.33 79.25 405.06 78.07C407.27 76.48 408.69 74.02 408.92 71.31C409.19 68.4 409.35 65.45 409.38 62.52C409.44 54.32 409.4 46.12 409.4 37.91V36.31H423.03C423.08 36.65 423.13 36.97 423.14 37.3C423.12 46.88 423.14 56.47 423.04 66.04C423.06 69.32 422.69 72.61 421.94 75.79C420.35 83.91 414.01 90.28 405.89 91.9C400.94 93.05 395.79 92.96 390.89 91.63C384.45 89.96 379.25 85.21 377.04 78.93C376.03 76.3 375.45 73.55 375.31 70.73C375.05 66.81 374.88 62.88 374.83 58.96C374.75 51.93 374.81 44.88 374.81 37.85C374.81 37.34 374.86 36.84 374.89 36.26" fill="white"/>
<path d="M488.62 47.3701L477.33 53.5801C476.82 53.1201 476.29 52.6701 475.82 52.2001C469.98 46.3201 459.84 46.7701 454.65 49.5901C449.04 52.4101 445.68 58.3501 446.16 64.6101C446.03 70.3901 449.27 75.7101 454.45 78.2501C456.93 79.5001 459.69 80.1101 462.46 80.0601C465.84 80.2001 469.2 79.4701 472.21 77.9501C473.75 77.1301 475.12 76.0901 476.33 74.8301C476.62 74.5101 476.86 74.1601 477.19 73.7401L488.05 81.1701C486.99 82.6901 485.74 84.0701 484.34 85.2901C480.16 89.0201 474.96 91.4201 469.4 92.1901C463.38 93.2001 457.2 92.7701 451.37 90.9201C436.46 85.6801 428.61 69.3501 433.85 54.4401C435.29 50.3601 437.63 46.6401 440.7 43.6001C444.9 39.4201 450.28 36.6301 456.1 35.5901C462.78 34.1601 469.73 34.7301 476.07 37.2201C480.66 39.0501 484.68 42.0901 487.73 46.0001C487.97 46.3201 488.19 46.6401 488.42 46.9401C488.5 47.1001 488.58 47.2601 488.64 47.4201" fill="white"/>
<path d="M676.46 90.94H669.91C669.57 89.79 669.59 37.62 669.91 36.53H676.46V45.79C676.76 45.53 677.05 45.26 677.33 44.99C677.91 44.29 678.45 43.56 679.03 42.86C682.54 38.49 687.63 35.7 693.2 35.13C698.18 34.47 703.22 35.9 707.13 39.05C709.31 40.91 710.97 43.31 711.95 46C712.21 46.64 712.46 47.27 712.73 47.95C713.37 47.76 713.48 47.26 713.72 46.88C715.67 43.5 718.38 40.62 721.63 38.46C725.39 35.93 729.88 34.71 734.41 35.02C742.35 35.31 749.06 41.04 750.58 48.84C751.33 52.17 751.7 55.57 751.69 58.98C751.69 69.16 751.71 79.36 751.71 89.55C751.71 89.98 751.66 90.4 751.65 90.96C749.41 91.14 747.15 91.17 744.91 91.04C744.88 90.46 744.81 89.97 744.81 89.45V59.27C744.86 56.37 744.6 53.49 744.03 50.65C742.97 46.02 739.21 42.5 734.52 41.75C725.79 40.44 717.51 45.98 715.4 54.53C714.5 58.05 714.05 61.66 714.09 65.29C714.01 73.23 713.99 81.18 713.96 89.12C713.96 90.41 713.32 91.06 712.05 91.06H708.69C708.27 91.06 707.86 91 707.27 90.95V61.36C707.32 58.03 707.06 54.71 706.5 51.45C705.56 45.77 700.65 41.59 694.89 41.54C687.96 41.43 681.65 45.5 678.88 51.84C677.95 54.02 677.33 56.32 677.05 58.69C676.63 61.94 676.46 65.22 676.51 68.51C676.53 75.43 676.51 82.33 676.51 89.25V91L676.48 90.98L676.46 90.94Z" fill="white"/>
<path d="M795.29 41.3799C793.83 41.5199 792.36 41.57 790.93 41.84C784.94 42.95 779.71 46.5799 776.58 51.8199C773.44 56.9299 772.42 63.0599 773.73 68.9099C776.16 80.7399 787.73 88.3499 799.54 85.9299C800.15 85.7999 800.74 85.6599 801.33 85.4799C813 81.7799 819.65 69.5099 816.35 57.7099C813.8 48.1299 805.17 41.4599 795.26 41.3899L795.28 41.3699L795.29 41.3799ZM773.83 81.95C773.56 84.45 773.73 86.87 773.7 89.25C773.67 91.64 773.7 94.09 773.7 96.5V111.17C771.47 111.28 769.38 111.23 767.39 111.2C767.33 111.15 767.26 111.09 767.2 111.02C767.17 110.99 767.14 110.96 767.14 110.91C767.11 110.48 767.06 110.05 767.06 109.63C767.06 85.42 767.06 61.2099 767.09 36.9799C767.12 36.8199 767.19 36.6599 767.25 36.5199C769.36 36.3799 771.49 36.3799 773.61 36.5199C773.66 37.0599 773.72 37.5299 773.72 37.9799V44.7099C773.72 45.1599 773.78 45.6199 773.82 46.1399C774.48 46.0899 774.64 45.6399 774.89 45.3399C776.72 42.99 778.91 40.9199 781.36 39.2199C784.82 36.9099 788.79 35.4999 792.94 35.0999C806.54 33.7199 819.17 42.2599 822.98 55.3899C823.65 57.9799 823.97 60.64 823.97 63.32C824.4 73.9 818.85 83.8199 809.59 88.9899C806.44 90.8999 802.88 92.0299 799.21 92.3399C790.07 93.4899 780.97 89.9199 775.05 82.8599C774.83 82.5999 774.57 82.36 774.33 82.1199C774.28 82.07 774.19 82.06 773.86 81.94" fill="white"/>
<path d="M603.21 64.3399C603.31 65.1599 603.4 66.53 603.66 67.88C605.6 79.83 616.86 87.94 628.8 86.01C629.02 85.98 629.23 85.9299 629.46 85.8999C636.84 84.6999 643.02 79.6499 645.66 72.6599C647.34 68.3699 647.73 63.68 646.77 59.18C644.59 47.38 633.26 39.6 621.45 41.77C620.82 41.88 620.22 42.0299 619.59 42.1999C609.73 44.9899 602.98 54.0999 603.19 64.3499H603.21V64.3399ZM646.77 45.99V36.6699C648.9 36.2999 651.06 36.2699 653.19 36.5399C653.45 37.4499 653.56 88.8099 653.27 90.8899C651.14 91.0499 649.01 91.07 646.9 90.95C646.85 90.44 646.79 89.9899 646.79 89.5199V83.31C646.79 82.86 646.71 82.4299 646.68 81.9799L646.39 81.88C646.04 82.25 645.7 82.5999 645.37 82.9699C641.48 87.4899 636.21 90.61 630.38 91.87C615.26 95.09 600.39 85.43 597.17 70.32V70.2699C595.63 64.0399 596.26 57.4899 598.93 51.6599C602.72 42.7999 610.86 36.56 620.4 35.21C630.01 33.42 639.78 37.2799 645.59 45.1399C645.85 45.4599 646.12 45.7799 646.39 46.0799L646.79 45.9399" fill="white"/>
<path d="M515.13 36.2H523.14C523.46 40.14 523.48 44.09 523.22 48.05H515.15V91C510.6 91.3 506.04 91.34 501.47 91.1C501.44 87.56 501.47 84.01 501.47 80.45V48.1H494.7C494.35 44.16 494.3 40.19 494.56 36.23H501.48V16.01H515.12C515.25 17.64 515.15 19.31 515.17 20.97V36.2H515.14H515.13Z" fill="white"/>
<path d="M225.35 91.18H211.93C211.66 90.2 211.54 38.42 211.82 36.24C215.62 36.19 219.41 36.24 223.35 36.22C223.59 38.37 223.32 40.43 223.64 42.5C225.53 38.67 229.08 35.92 233.26 35.04C235.94 34.54 238.69 34.96 241.09 36.24C239.74 40.18 238.3 44.05 236.86 47.98C236.01 47.66 235.31 47.39 234.57 47.16C232.63 46.49 230.49 47.03 229.13 48.57C227.77 49.93 226.86 51.64 226.47 53.52C225.96 55.84 225.62 58.18 225.48 60.55C225.3 65.03 225.37 69.53 225.37 74.02V91.2L225.35 91.18Z" fill="white"/>
<path d="M584.97 80.2401C584.54 80.8501 584.22 81.34 583.85 81.83C580.09 86.57 574.83 89.92 568.94 91.33C561.48 93.48 553.52 92.9801 546.38 89.9401C538.33 86.7101 532.32 79.79 530.24 71.35C526.22 56.12 535.2 40.4901 550.4 36.3101C559.24 33.6401 568.8 34.7701 576.77 39.4301C580.17 41.3801 582.97 44.23 584.87 47.66L579.73 50.88C579.49 50.69 579.27 50.4801 579.07 50.2701C575.37 45.5501 569.99 42.4701 564.05 41.6501C558.22 40.5801 552.18 41.6501 547.08 44.6401C541.22 47.9401 537.25 53.8201 536.37 60.4901C534.64 72.1501 542.23 83.1601 553.74 85.6801C562.84 88.0301 572.49 85.02 578.64 77.91C578.9 77.62 579.17 77.3301 579.42 77.0601C579.47 77.0001 579.56 77 579.79 76.9L584.96 80.28" fill="white"/>
</svg>
